<svg width="36" height="48" viewBox="0 0 36 48" fill="none" xmlns="http://www.w3.org/2000/svg">
<path d="M33.1498 36.0003H2.84998C1.34999 36.0003 0 34.8003 0 33.1503V2.85047C0 1.35048 1.19999 0.000488281 2.84998 0.000488281H33.1498C34.6498 0.000488281 35.9998 1.20048 35.9998 2.85047V33.1503C35.9998 34.8003 34.7998 36.0003 33.1498 36.0003Z" fill="#F16522"/>
<path d="M2.25011 40.9503C1.65011 40.9503 1.20011 41.1003 0.900116 41.4003C0.750117 41.5503 0.600119 41.7003 0.450119 41.8503V39.3003H0.00012207V46.2002H0.450119V45.4503C0.600119 45.6003 0.750117 45.7502 0.900116 45.9002C1.20011 46.2002 1.65011 46.3502 2.25011 46.3502C2.8501 46.3502 3.4501 46.0503 3.9001 45.6003C4.35009 45.1503 4.50009 44.4003 4.50009 43.6503C4.50009 42.9003 4.35009 42.3003 3.9001 41.7003C3.4501 41.2503 3.0001 40.9503 2.25011 40.9503ZM2.25011 45.9002C1.65011 45.9002 1.35011 45.7503 0.900116 45.3003C0.600118 44.8503 0.450119 44.4003 0.450119 43.8003C0.450119 43.0503 0.600118 42.6003 0.900116 42.1503C1.20011 41.8503 1.65011 41.5503 2.25011 41.5503C2.8501 41.5503 3.1501 41.7003 3.4501 42.1503C3.7501 42.6003 3.9001 43.0503 3.9001 43.6503C3.9001 44.2503 3.7501 44.8503 3.4501 45.1503C3.1501 45.6002 2.8501 45.9002 2.25011 45.9002Z" fill="#231F20"/>
<path d="M8.70045 45.7501C8.70045 45.6001 8.70045 45.6001 8.70045 45.7501V42.6001C8.70045 42.0001 8.55045 41.7001 8.25046 41.4001C7.95046 41.1001 7.50046 41.1001 7.05046 41.1001C6.45047 41.1001 6.00047 41.2501 5.55047 41.5501C5.25047 41.8501 4.95048 42.3001 4.95048 42.7501V42.9001H5.40047V42.7501C5.40047 42.3001 5.55047 42.0001 5.85047 41.8501C6.15047 41.7001 6.45047 41.5501 6.90046 41.5501C7.35046 41.5501 7.80046 41.7001 7.95046 41.8501C8.10046 42.0001 8.25046 42.3001 8.25046 42.7501C8.25046 43.0501 8.10046 43.2001 7.95046 43.2001C7.65046 43.3501 7.20046 43.3501 6.60046 43.3501C6.15047 43.3501 5.70047 43.5001 5.40047 43.6501C5.10048 43.9501 4.80048 44.2501 4.80048 44.8501C4.80048 45.3001 4.95048 45.7501 5.25047 45.9001C5.55047 46.2001 6.00047 46.2001 6.45047 46.2001C6.90046 46.2001 7.35046 46.0501 7.80046 45.7501C7.95046 45.6001 8.10046 45.4501 8.25046 45.3001C8.25046 45.4501 8.25046 45.6001 8.40046 45.7501C8.55045 45.9001 8.70045 45.9001 9.00045 45.9001H9.30045V45.4501H8.85045C8.85045 45.7501 8.70045 45.7501 8.70045 45.7501ZM5.55047 44.1001C5.85047 43.9501 6.15047 43.8001 6.45047 43.8001C7.05046 43.8001 7.50046 43.8001 7.80046 43.6501C7.95046 43.6501 8.10046 43.6501 8.10046 43.5001V44.1001C8.10046 44.5501 7.95046 45.0001 7.65046 45.3001C7.35046 45.6001 6.90046 45.7501 6.30047 45.7501C5.85047 45.7501 5.55047 45.6001 5.40047 45.4501C5.25047 45.3001 5.10047 45.0001 5.10047 44.8501C5.25047 44.4001 5.25047 44.2501 5.55047 44.1001Z" fill="#231F20"/>
<path d="M11.5498 40.9502C11.0998 40.9502 10.6498 41.1002 10.3498 41.4002C10.1998 41.5502 10.0499 41.5502 10.0499 41.7002V41.1002H9.59985V46.2002H10.0499V43.3502C10.0499 42.7502 10.1999 42.4502 10.4998 42.0002C10.7998 41.7002 11.0998 41.5502 11.6998 41.5502C12.1498 41.5502 12.4498 41.7002 12.5998 41.8502C12.8998 42.1502 13.0498 42.4502 13.0498 42.9002V46.2002H13.4998V42.9002C13.4998 42.3002 13.3498 41.8502 13.0498 41.5502C12.4498 41.2502 11.9998 40.9502 11.5498 40.9502Z" fill="#231F20"/>
<path d="M17.7002 41.8502C17.5502 41.7002 17.4002 41.5502 17.2502 41.4002C16.9502 41.1002 16.5002 40.9502 16.0502 40.9502C15.3002 40.9502 14.8502 41.2502 14.4002 41.7002C13.9502 42.1502 13.8002 42.7502 13.8002 43.5002C13.8002 44.2502 13.9502 44.7002 14.4002 45.3002C14.8502 45.7502 15.3002 46.0502 16.0502 46.0502C16.5002 46.0502 16.9502 45.9002 17.4002 45.6002C17.5502 45.4502 17.7002 45.3002 17.8502 45.1502V45.9002C17.8502 46.5002 17.7002 46.8002 17.4002 47.1002C17.1002 47.4002 16.6502 47.5502 16.2002 47.5502C15.7502 47.5502 15.4502 47.4002 15.1502 47.2502C14.8502 47.1002 14.7002 46.8002 14.7002 46.3502V46.2002H14.2502V46.3502C14.2502 46.9502 14.4002 47.4002 14.8502 47.5502C15.1502 47.8502 15.7502 48.0002 16.2002 48.0002C16.9502 48.0002 17.4002 47.8502 17.8502 47.5502C18.3002 47.2502 18.4502 46.6502 18.4502 46.0502V41.2502H18.0002L17.7002 41.8502ZM14.7002 45.0002C14.4002 44.7002 14.2502 44.1002 14.2502 43.6502C14.2502 43.0502 14.4002 42.6002 14.7002 42.1502C15.0002 41.8502 15.4502 41.5502 15.9002 41.5502C16.3502 41.5502 16.8002 41.7002 17.1002 42.1502C17.4002 42.6002 17.5502 43.0502 17.5502 43.5002C17.5502 44.1002 17.4002 44.5502 17.1002 44.8502C16.8002 45.1502 16.3502 45.4502 15.9002 45.4502C15.4502 45.4502 15.0002 45.3002 14.7002 45.0002Z" fill="#231F20"/>
<path d="M19.35 39.3003H18.9V46.2002H19.35V39.3003Z" fill="#231F20"/>
<path d="M23.8497 45.7501C23.8497 45.6001 23.8497 45.6001 23.8497 45.7501V42.6001C23.8497 42.0001 23.6997 41.7001 23.3997 41.4001C23.0997 41.1001 22.6498 41.1001 22.1998 41.1001C21.5998 41.1001 21.1498 41.2501 20.6998 41.5501C20.3998 41.8501 20.0998 42.3001 20.0998 42.7501V42.9001H20.5498V42.7501C20.5498 42.3001 20.6998 42.0001 20.9998 41.8501C21.2998 41.7001 21.5998 41.5501 22.0498 41.5501C22.4998 41.5501 22.9497 41.7001 23.0997 41.8501C23.2497 42.0001 23.3997 42.3001 23.3997 42.7501C23.3997 43.0501 23.2497 43.2001 23.0997 43.2001C22.7998 43.3501 22.3498 43.3501 21.7498 43.3501C21.2998 43.3501 20.8498 43.5001 20.5498 43.6501C20.2498 43.9501 19.9498 44.2501 19.9498 44.8501C19.9498 45.3001 20.0998 45.7501 20.3998 45.9001C20.6998 46.2001 21.1498 46.2001 21.5998 46.2001C22.0498 46.2001 22.4998 46.0501 22.9497 45.7501C23.0997 45.6001 23.2497 45.4501 23.3997 45.3001C23.3997 45.4501 23.3997 45.6001 23.5497 45.7501C23.6997 45.9001 23.8497 45.9001 24.1497 45.9001H24.4497V45.4501H23.9997C23.9997 45.7501 23.8497 45.7501 23.8497 45.7501ZM20.5498 44.1001C20.8498 43.9501 21.1498 43.8001 21.4498 43.8001C22.0498 43.8001 22.4998 43.8001 22.7998 43.6501C22.9498 43.6501 23.0997 43.6501 23.0997 43.5001V44.1001C23.0997 44.5501 22.9498 45.0001 22.6498 45.3001C22.3498 45.6001 21.8998 45.7501 21.2998 45.7501C20.8498 45.7501 20.5498 45.6001 20.3998 45.4501C20.2498 45.3001 20.0998 45.0001 20.0998 44.8501C20.2498 44.4001 20.3998 44.2501 20.5498 44.1001Z" fill="#231F20"/>
<path d="M25.0496 39.3003H24.5996V46.2002H25.0496V39.3003Z" fill="#231F20"/>
<path d="M26.2505 39.3003H25.8005V40.5003H26.2505V39.3003Z" fill="#231F20"/>
<path d="M26.2505 41.1001H25.8005V46.2001H26.2505V41.1001Z" fill="#231F20"/>
<path d="M29.0998 40.9502C28.6498 40.9502 28.1998 41.1002 27.8998 41.4002C27.7498 41.5502 27.5998 41.5502 27.5998 41.7002V41.1002H26.9998V46.2002H27.4498V43.3502C27.4498 42.7502 27.5998 42.4502 27.8998 42.0002C28.1998 41.7002 28.4998 41.5502 29.0998 41.5502C29.5498 41.5502 29.8498 41.7002 29.9998 41.8502C30.2998 42.1502 30.4498 42.4502 30.4498 42.9002V46.2002H30.8998V42.9002C30.8998 42.3002 30.7498 41.8502 30.4498 41.5502C29.9998 41.2502 29.5498 40.9502 29.0998 40.9502Z" fill="#231F20"/>
<path d="M33.6001 43.2003L36.0001 41.1003H35.1001L32.1001 43.6503V39.3003H31.6501V46.2002H32.1001V44.4003L33.1501 43.5003L35.4001 46.2002H36.0001L33.6001 43.2003Z" fill="#231F20"/>
<path d="M23.0998 34.0502C28.0497 28.3502 30.8997 21.6003 32.2497 14.4003C32.3997 13.5003 32.0997 12.4503 31.9497 11.5503C31.7997 11.5503 31.6497 11.5503 31.4997 11.5503C31.1997 12.0003 30.8997 12.3003 30.5997 12.7503C30.4497 12.9003 30.4497 13.0503 30.4497 13.3503C29.2497 17.5503 27.4497 21.1503 24.5998 24.6003C22.6498 26.8502 21.4498 29.7002 20.2498 32.5502C19.3498 34.5002 19.1998 34.6502 16.7998 34.3502C17.5498 32.8502 18.1498 31.2002 18.8998 29.8502C21.1498 26.4002 23.5498 22.9503 25.6497 19.5003C26.6997 17.8503 27.2997 16.0503 28.3497 14.5503C29.0997 13.2003 30.1497 12.1503 30.8997 10.8003C31.6497 9.60035 32.0997 8.25036 32.5497 6.75037C32.9997 5.55038 33.1497 4.35038 33.4497 3.15039C33.5997 3.15039 33.7497 3.15039 33.8997 3.30039C33.5997 4.65038 33.2997 6.00037 33.1497 7.35036C32.9997 8.85035 32.8497 10.3503 32.6997 11.8503C32.6997 12.6003 32.3997 13.5003 33.5997 13.9503C33.8997 13.9503 34.0497 15.1503 33.8997 15.6003C32.9997 18.7503 32.2497 22.0503 31.1997 25.0503C30.4497 27.0002 29.2497 28.6502 28.1997 30.3002C27.8997 30.9002 27.4497 31.5002 27.1497 32.1002C25.9497 34.5002 25.9497 34.6502 23.0998 34.0502Z" fill="black"/>
<path d="M21.2989 1.95039C21.8989 3.30038 21.1489 4.05037 20.6989 4.80037C18.899 7.35035 16.799 9.90034 15.299 12.6003C13.949 15.0003 12.749 17.7003 11.849 20.4003C10.949 23.1003 9.74902 25.5002 8.09903 27.6002C6.74904 29.4002 5.54905 31.2002 4.19905 33.0002C3.89906 33.4502 3.59906 33.9002 3.14906 34.2002C2.99906 34.2002 2.84906 34.0502 2.69906 34.0502C2.69906 33.6002 2.54906 33.0002 2.84906 32.5502C3.44906 30.9002 4.19905 29.1002 4.94905 27.4502C6.29904 25.0502 6.74904 22.5003 6.44904 19.9503C5.99904 16.3503 6.44904 12.7503 7.19903 9.30034C7.49903 8.25035 7.49903 7.05036 7.64903 5.70037C5.09905 6.60036 4.04905 9.00034 2.09907 10.6503C1.79907 9.15034 1.64907 8.10035 2.84906 7.20036C4.64905 5.70037 6.14904 4.05038 7.94903 2.55039C8.39903 2.10039 9.14902 2.10039 10.049 1.65039C9.74902 2.85038 9.59902 3.45038 9.44902 4.20037C8.84902 7.20036 8.24903 10.0503 7.79903 13.0503C7.64903 14.4003 7.64903 15.9003 7.79903 17.2503C7.94903 19.2003 8.09903 21.3003 8.39903 23.4003C9.74902 23.2503 10.349 22.3503 10.799 21.1503C11.849 18.4503 12.899 15.7503 14.099 13.0503C15.599 9.60034 17.099 6.30036 19.949 3.75038C20.399 3.45038 20.699 2.70038 21.2989 1.95039Z" fill="black"/>
<path d="M6.6001 34.0501C7.05009 33.3001 7.2001 32.5501 7.65009 31.9501C9.45008 29.4001 11.4001 26.8501 12.9001 24.1502C15.15 19.8002 18.3 16.2002 21.15 12.3002C21.6 11.8502 21.9 11.1002 22.05 10.5002C22.5 8.25026 23.55 6.60027 25.05 4.95028C25.8 4.20028 26.55 3.30029 27.6 2.55029C27.15 3.30029 26.85 4.05028 26.4 4.65028C24.6 6.30027 23.7 8.25026 23.1 10.6502C22.5 12.6002 21.45 14.2502 20.55 16.0502C19.65 18.0002 18.75 19.9502 17.85 21.7502C15.75 26.1001 13.3501 30.0001 9.60008 33.3001C8.70008 33.9001 7.95009 34.5001 6.6001 34.0501Z" fill="black"/>
<path d="M15.4498 30.4498C16.6498 28.6498 18.2998 26.9999 19.0498 24.8999C19.9498 21.8999 21.5998 19.1999 22.1998 16.1999C23.0998 11.8499 25.3498 8.84996 27.8998 5.69998C28.6497 4.79999 29.0997 3.74999 29.6997 2.85C30.1497 2.1 30.7497 1.80001 31.3497 2.25C31.4997 2.4 31.4997 3.3 31.1997 3.74999C29.9997 5.54998 28.6497 7.19997 27.4498 9.14996C26.3998 10.8 25.4998 12.5999 24.5998 14.3999C23.8498 15.8999 22.9498 17.3999 22.1998 19.0499C21.2998 20.8499 20.3998 22.6499 19.9498 24.4499C19.3498 26.9998 17.5498 28.9498 15.4498 30.4498Z" fill="black"/>
<path d="M15.2993 2.10033C13.6494 4.20031 12.5994 6.3003 12.1494 8.85029C11.6994 11.5503 10.4994 14.1003 9.74937 16.8002C9.59938 16.8002 9.44938 16.8002 9.29938 16.6502C9.44938 15.9002 9.59938 15.0002 9.74937 14.2502C10.4994 10.9503 11.2494 7.65029 11.9994 4.50031C12.7494 2.25033 13.1994 1.95033 15.2993 2.10033Z" fill="black"/>
<path d="M33.8998 25.0503C34.6498 30.3003 33.2998 34.2002 30.4498 34.2002C31.6498 31.0503 32.8498 28.0503 33.8998 25.0503Z" fill="black"/>
<path d="M4.94999 10.2003C4.79999 10.6503 4.49999 11.1003 4.19999 11.4003C2.7 13.2003 2.4 15.1503 2.55 17.4002C2.55 19.0502 2.4 20.7002 2.4 22.3502C2.4 22.6502 2.25 22.8002 1.95001 23.1002C2.10001 18.6002 0.750014 13.8003 4.64999 10.0503C4.79999 10.2003 4.94999 10.2003 4.94999 10.2003Z" fill="black"/>
<path d="M23.9998 2.2501C22.6498 5.55008 21.8998 9.15005 19.3498 11.7C20.6998 8.55006 22.1998 5.25008 23.6998 2.1001C23.6998 2.1001 23.8498 2.1001 23.9998 2.2501Z" fill="black"/>
<path d="M2.09982 4.65008C1.79982 2.70009 2.24982 2.1001 3.74981 2.1001C3.14981 2.85009 2.69981 3.60009 2.09982 4.65008Z" fill="black"/>
</svg>
